<svg xmlns="http://www.w3.org/2000/svg" viewBox="0 0 424.75 108.37"><title>Outside</title><path d="M50.7,108.37c28.1,0,46.8-20.42,49-47.88h4.76V90.54c0,12,8.32,16.64,19.23,16.64A23.2,23.2,0,0,0,143.43,95.4v10.92h26V92.38h-8V60.49h12.75V85.13c0,14.7,5.84,22.05,19.34,22.05,7.79,0,12-3.78,15-8.11v7.25h12.11V98.43c6.26,6.7,12.42,8.75,21.61,8.75,8.44,0,15.35-2.92,19-8.32v7.46h39.46v-9c4.11,6.15,11.35,9.72,20.74,9.72,8.43,0,13.84-3.57,18.06-10v9.3H367.9V97.13c5.63,7.45,13.94,10.48,25.08,10.48,15.35,0,29.6-6.27,31.77-23.56H406.92c-1.41,7.46-4.87,11-12.75,11-6.61,0-11.25-4-11.58-15.46h41.62V77.13c0-19.45-11.57-31.66-30-31.66C377,45.47,363,57.36,363,76.49c0,5.94.86,11.45,2.91,15.77h-8.2V26.12H328.89V40.39h10.7V55a18.71,18.71,0,0,0-15.9-8.53C306,46.45,296.47,59,296.47,76.06a48.65,48.65,0,0,0,2.58,16.32h-9.61V46.45H247.29V53.9c-3.36-4.75-8.21-8-16.64-8-10.16,0-16.65,3.14-19.78,7.35v-7H192.71V30.45H178.34c0,10.7-2.81,15.78-17,15.78H133.49V60.81h9.83v18.7c0,7.46-3.78,13.19-11.89,13.19-6.91,0-8.75-4.65-8.75-10.8V46.23H98.8C94.47,22.88,77.72,3.75,50.7,3.75,19.58,3.75,1.64,26.56,1.64,56.6c0,29.18,19.56,51.77,49.06,51.77M238.64,95.73c-8.53,0-12.43-3.9-16.43-10.38H201.79c.32,6.6.22,10.27-4.22,10.27s-4.86-4.43-4.86-8V60.49h16.43a25.82,25.82,0,0,0-.11,2.92c0,27.34,37.5,16.32,37.5,27.56,0,3.89-4.54,4.75-7.88,4.75m24.63-3.46a28.69,28.69,0,0,0,.33-4.53c0-26.05-37.94-15.46-37.94-26.16,0-3.57,4.66-4.21,8.87-4.21,5.94,0,9.4,1.83,12.1,7.45h15.57V60.49h10.7V92.26ZM53.41,92.7c-14.7.1-23.68-23.34-23.68-44,0-11.89,4.54-29.94,18.05-29.94,18,0,23.89,29,23.89,43,0,13.3-4.32,30.91-18.26,30.91m274.72.54c-9.84,0-12-9.84-12-17.83,0-7.79,3-16.32,12.32-16.32,7.35,0,11.14,7,11.14,14v6c0,6.91-3.56,14.15-11.46,14.15M382.92,70c1.3-8.76,5.83-12.11,11.35-12.11,7.46,0,10.17,4.43,10.7,12.11ZM272.36,41.79h17.08V26.12H272.36Z" fill="#ed0505"></path><path d="M49.31,104.87c28.1,0,46.8-20.43,49-47.88H103V87c0,12,8.32,16.64,19.23,16.64A23.23,23.23,0,0,0,142.05,91.9v10.92h26V88.88h-8V57h12.75V81.63c0,14.7,5.84,22.05,19.35,22.05,7.78,0,12-3.78,15-8.11v7.25h12.11V94.93c6.27,6.7,12.43,8.75,21.61,8.75,8.44,0,15.35-2.92,19-8.32v7.46H299.4v-9c4.11,6.15,11.35,9.72,20.75,9.72,8.43,0,13.84-3.57,18.05-10v9.3h28.31V93.63c5.63,7.45,13.95,10.48,25.08,10.48,15.35,0,29.61-6.27,31.77-23.56H405.53c-1.41,7.46-4.86,11-12.75,11-6.6,0-11.24-4-11.57-15.46h41.61V73.63c0-19.45-11.57-31.66-30.05-31.66-17.18,0-31.12,11.89-31.12,31,0,5.94.86,11.45,2.92,15.77h-8.21V22.62H327.5V36.89h10.7V51.48A18.69,18.69,0,0,0,322.31,43c-17.72,0-27.23,12.53-27.23,29.61a49,49,0,0,0,2.58,16.32h-9.61V42.94H245.9V50.4c-3.36-4.75-8.21-8-16.64-8-10.16,0-16.65,3.14-19.78,7.35v-7H191.32V27H177c0,10.7-2.81,15.78-17,15.78H132.1V57.31h9.83V76c0,7.46-3.77,13.18-11.88,13.18-6.92,0-8.75-4.64-8.75-10.8V42.73H97.41C93.08,19.38,76.33.25,49.31.25,18.19.25.25,23.06.25,53.1c0,29.18,19.56,51.77,49.06,51.77m188-12.64c-8.53,0-12.43-3.9-16.44-10.38H200.4c.33,6.6.22,10.27-4.22,10.27s-4.86-4.43-4.86-8V57h16.43a28.39,28.39,0,0,0-.11,2.92c0,27.34,37.5,16.32,37.5,27.56,0,3.89-4.53,4.75-7.88,4.75m24.64-3.46a30,30,0,0,0,.32-4.54c0-26-37.94-15.45-37.94-26.15,0-3.57,4.66-4.21,8.87-4.21,5.94,0,9.4,1.83,12.1,7.45h15.57V57h10.7V88.76ZM52,89.2c-14.7.1-23.67-23.34-23.67-44,0-11.89,4.53-29.94,18-29.94,17.94,0,23.88,29,23.88,43C70.28,71.59,66,89.2,52,89.2m274.72.54c-9.84,0-12-9.84-12-17.83,0-7.79,3-16.32,12.33-16.32,7.34,0,11.13,7,11.13,14v6c0,6.91-3.56,14.15-11.46,14.15m54.8-23.23c1.29-8.76,5.83-12.11,11.35-12.11,7.45,0,10.16,4.43,10.7,12.11ZM271,38.29h17.08V22.62H271Z" fill="#ffd204" stroke="#454545" stroke-width="0.5"></path></svg>